<svg xmlns="http://www.w3.org/2000/svg" width="340.375" height="75" viewBox="0 0 340.375 75">
  <g id="Logo" transform="translate(5646.461 3819)">
    <g id="Group_5340" data-name="Group 5340" transform="translate(-5389.118 -3819)">
      <g id="Group_5206" data-name="Group 5206" transform="translate(0 0)">
        <g id="Group_5204" data-name="Group 5204" transform="translate(0 0)">
          <path id="Union_627" data-name="Union 627" d="M41.944,71.3c-2.9-.189-3.467,2.981-6.271,3.642s-3.23-5.441-5.985-5.819a6.937,6.937,0,0,0-3.429.657c-1.364.523-2.622,1.045-3.792.384-2.09-1.183-.664-4.211-2.612-6.86,0,0-.76-.946-3.706-.568-2.944.332-4.513-.946-3.895-3.6s1.045-5.014-1.33-5.913c-2.09-.8-5.178-1.42-5.036-3.5H0V47.831H83.032v1.893H77.664a1.691,1.691,0,0,1-.855,1.655,9.217,9.217,0,0,1-2.755,1.23c-1.758.521-3.658,1.135-3.135,4.116.569,3.028.95,4.778-.57,5.582s-6.175-.425-7.22,1.513-.476,5.441-2.233,6.434c-.915.492-2.291-.014-3.71-.52-1.309-.467-2.653-.933-3.7-.615-2.185.663-2.043,3.927-4.655,5.535A1.987,1.987,0,0,1,47.757,75C45.784,75,44.418,71.457,41.944,71.3Zm-.238-3.17a30.89,30.89,0,0,0,28.264-18.4H67.357a28.457,28.457,0,0,1-51.207,0H13.538A30.653,30.653,0,0,0,41.705,68.126Zm0-4.4a26.375,26.375,0,0,0,23.324-14h-46.6A26.353,26.353,0,0,0,41.705,63.726ZM0,27.346V25.454H5.842A2.576,2.576,0,0,1,5.89,24.6c.571-2.555,5.368-1.372,6.6-4.211.855-1.987-1.377-4.589,0-7.239A2.539,2.539,0,0,1,14.82,12.3c1.711.095,4.893.047,5.747-1.515s0-7.1,3.706-6.339c3.7.709,5.985,3.169,7.885-1.135s3.8-3.738,5.605-2.082,3.847,3.548,6.223,1.419c2.327-2.129,4.274-3.974,6.175-1.135s2.233,5.2,6.081,3.832,4.94-1.986,5.842,1.94.95,4.968,3.942,4.873c2.945-.1,4.846-.19,5.32,1.75.476,1.893-.9,3.738-.427,6.245s5.225,1.514,6.65,4.4a1.665,1.665,0,0,1,.19.8v.1h5.225v1.892Zm67.357-1.939h2.612a30.809,30.809,0,0,0-56.526,0h2.612a28.423,28.423,0,0,1,51.3,0Zm-49.022-.048H65.077a26.38,26.38,0,0,0-46.742,0Z" fill="#fd951f"/>
        </g>
        <g id="Group_5317" data-name="Group 5317" transform="translate(28.228 51.875)">
          <path id="Path_14745" data-name="Path 14745" d="M81.844,119.968l2.073-1.031,2.031,1.031-.332-2.227,1.617-1.649-2.28-.371L83.916,113.7l-1.078,2.021-2.239.371,1.617,1.649Z" transform="translate(-70.036 -111.468)" fill="#fff"/>
          <path id="Path_14746" data-name="Path 14746" d="M58.685,114.568l2.031-.99,2.031.99-.332-2.227,1.617-1.649-2.28-.33L60.716,108.3l-1.036,2.062-2.28.33,1.617,1.649Z" transform="translate(-57.4 -108.3)" fill="#fff"/>
          <path id="Path_14747" data-name="Path 14747" d="M104.385,114.568l2.031-.99,2.073.99-.373-2.227,1.617-1.649-2.239-.33-1.078-2.062-1.036,2.062-2.28.33,1.617,1.649Z" transform="translate(-82.261 -108.3)" fill="#fff"/>
        </g>
        <g id="Group_5316" data-name="Group 5316" transform="translate(28.229 14.186)">
          <path id="Path_14748" data-name="Path 14748" d="M84.912,30.8l-1.027-2-1.068,2-2.218.368L82.2,32.8l-.37,2.206,2.053-1.021L85.9,35.009,85.569,32.8l1.6-1.634Z" transform="translate(-70.403 -28.8)" fill="#fff"/>
          <path id="Path_14749" data-name="Path 14749" d="M61.712,36.7l-1.027-2-1.027,2-2.259.368L59,38.663l-.329,2.247,2.012-1.021L62.7,40.909l-.329-2.247,1.6-1.593Z" transform="translate(-57.4 -32.284)" fill="#fff"/>
          <path id="Path_14750" data-name="Path 14750" d="M107.453,36.7l-1.068-2-1.027,2-2.259.368,1.6,1.593-.329,2.247,2.012-1.021,2.053,1.021-.37-2.247,1.6-1.593Z" transform="translate(-82.706 -32.284)" fill="#fff"/>
        </g>
        <g id="Group_5315" data-name="Group 5315" transform="translate(13.972 31.16)">
          <path id="Path_14744" data-name="Path 14744" d="M46.6-15.529H43.273v2.242h3.907V-11.9H41.539v-8.371h5.63v1.4h-3.9v2H46.6ZM48.2-11.9v-8.371h2.589a3.949,3.949,0,0,1,1.985.5,3.476,3.476,0,0,1,1.367,1.414,4.344,4.344,0,0,1,.491,2.084v.385a4.356,4.356,0,0,1-.483,2.076,3.446,3.446,0,0,1-1.361,1.409A3.979,3.979,0,0,1,50.8-11.9Zm1.734-6.974v5.589h.838a1.888,1.888,0,0,0,1.555-.661,2.977,2.977,0,0,0,.549-1.892v-.443a3.024,3.024,0,0,0-.532-1.935,1.881,1.881,0,0,0-1.555-.658Zm7.8,6.974H56v-8.371h1.734Zm8.213-2.789a2.956,2.956,0,0,1-1,2.127,3.534,3.534,0,0,1-2.384.776,3.175,3.175,0,0,1-2.546-1.084,4.428,4.428,0,0,1-.928-2.975v-.512a5,5,0,0,1,.428-2.127A3.193,3.193,0,0,1,60.738-19.9a3.438,3.438,0,0,1,1.847-.492,3.443,3.443,0,0,1,2.347.776,3.177,3.177,0,0,1,1.029,2.179H64.226a1.743,1.743,0,0,0-.454-1.176,1.686,1.686,0,0,0-1.188-.365,1.476,1.476,0,0,0-1.3.618,3.45,3.45,0,0,0-.442,1.917v.632a3.691,3.691,0,0,0,.413,1.984,1.449,1.449,0,0,0,1.3.627,1.718,1.718,0,0,0,1.2-.365,1.644,1.644,0,0,0,.454-1.13ZM63.2-11.936l-.064.333a.927.927,0,0,1,.867.995,1.157,1.157,0,0,1-.529,1,2.581,2.581,0,0,1-1.488.368l-.04-.96q.647,0,.647-.466A.331.331,0,0,0,62.4-11a1.917,1.917,0,0,0-.627-.118l.179-.822Zm8.641-1.69H68.8L68.22-11.9H66.376l3.133-8.371h1.607l3.15,8.371H72.422Zm-2.572-1.4h2.1l-1.058-3.134Zm3.243-7.411a1.6,1.6,0,0,1-.382,1.09,1.187,1.187,0,0,1-.931.44,1.418,1.418,0,0,1-.39-.049,2.625,2.625,0,0,1-.471-.21,2.548,2.548,0,0,0-.433-.2,1.065,1.065,0,0,0-.289-.037.465.465,0,0,0-.344.144.557.557,0,0,0-.142.408l-.971-.057a1.628,1.628,0,0,1,.379-1.087,1.17,1.17,0,0,1,.928-.448,1.2,1.2,0,0,1,.327.043,3.606,3.606,0,0,1,.5.21,3.261,3.261,0,0,0,.48.2,1.1,1.1,0,0,0,.277.034.489.489,0,0,0,.35-.141.534.534,0,0,0,.147-.405ZM81.844-15.9a5.031,5.031,0,0,1-.439,2.168,3.3,3.3,0,0,1-1.257,1.437,3.492,3.492,0,0,1-1.876.506,3.515,3.515,0,0,1-1.867-.5,3.329,3.329,0,0,1-1.272-1.429,4.887,4.887,0,0,1-.457-2.136v-.414a5,5,0,0,1,.448-2.176,3.323,3.323,0,0,1,1.266-1.443,3.5,3.5,0,0,1,1.87-.5,3.5,3.5,0,0,1,1.87.5A3.323,3.323,0,0,1,81.4-18.441a4.991,4.991,0,0,1,.448,2.17Zm-1.757-.379a3.508,3.508,0,0,0-.474-2,1.547,1.547,0,0,0-1.353-.684,1.548,1.548,0,0,0-1.347.676,3.468,3.468,0,0,0-.48,1.981v.408a3.552,3.552,0,0,0,.474,1.989,1.543,1.543,0,0,0,1.364.707,1.529,1.529,0,0,0,1.341-.681,3.531,3.531,0,0,0,.474-1.986Z" transform="translate(-25.797 22.498)" fill="#fff"/>
          <path id="Path_14751" data-name="Path 14751" d="M3.794-6.385a2.322,2.322,0,0,1-.1-.413A1.5,1.5,0,0,1,2.513-6.3a1.482,1.482,0,0,1-1.062-.356,1.244,1.244,0,0,1-.375-.947,1.134,1.134,0,0,1,.482-.982,2.548,2.548,0,0,1,1.474-.344h.623v-.3q0-.775-.716-.775a1.1,1.1,0,0,0-.626.155.508.508,0,0,0-.228.448l-.929-.069a1.154,1.154,0,0,1,.5-.964,2.085,2.085,0,0,1,1.287-.373,1.717,1.717,0,0,1,1.212.41A1.526,1.526,0,0,1,4.6-9.221v1.814a3.312,3.312,0,0,0,.15,1.022ZM2.739-7.091a1.211,1.211,0,0,0,.5-.115,1.467,1.467,0,0,0,.415-.27v-.815H3.01a1.3,1.3,0,0,0-.736.187.555.555,0,0,0-.257.474Q2.017-7.091,2.739-7.091Z" transform="translate(6.416 12.929)" fill="#fff" stroke="rgba(0,0,0,0)" stroke-width="1"/>
          <rect id="Rectangle_3983" data-name="Rectangle 3983" width="3.691" height="0.779" transform="translate(7.492 7.684)" fill="#fff"/>
          <path id="Path_14863" data-name="Path 14863" d="M2.448-9.438h.883a1.248,1.248,0,0,0,.934-.314,1.145,1.145,0,0,0,.3-.832,1.013,1.013,0,0,0-.3-.781,1.17,1.17,0,0,0-.828-.279,1.227,1.227,0,0,0-.8.259.828.828,0,0,0-.321.676H.666a2.019,2.019,0,0,1,.352-1.166A2.346,2.346,0,0,1,2-12.682a3.3,3.3,0,0,1,1.4-.291,3.131,3.131,0,0,1,2.075.63,2.144,2.144,0,0,1,.751,1.736,1.741,1.741,0,0,1-.35,1.049,2.269,2.269,0,0,1-.917.735A2.073,2.073,0,0,1,6.01-8.07a2.034,2.034,0,0,1,.347,1.186,2.18,2.18,0,0,1-.811,1.773A3.272,3.272,0,0,1,3.4-4.444,3.1,3.1,0,0,1,1.356-5.1,2.137,2.137,0,0,1,.563-6.832H2.219a.953.953,0,0,0,.352.764,1.3,1.3,0,0,0,.868.3,1.309,1.309,0,0,0,.926-.311A1.07,1.07,0,0,0,4.7-6.907q0-1.243-1.376-1.243H2.448Z" transform="translate(-0.563 15.091)" fill="#fff" stroke="rgba(0,0,0,0)" stroke-width="1"/>
        </g>
      </g>
    </g>
    <g id="Group_5361" data-name="Group 5361" transform="translate(-5646.461 -3813.011)">
      <g id="Group_5339" data-name="Group 5339">
        <path id="Path_14858" data-name="Path 14858" d="M173.867-1.3V-28.437h8.351a12.682,12.682,0,0,1,6.4,1.612,11.244,11.244,0,0,1,4.408,4.586,14.144,14.144,0,0,1,1.584,6.757v1.249A14.184,14.184,0,0,1,193.058-7.5a11.147,11.147,0,0,1-4.39,4.567,12.778,12.778,0,0,1-6.394,1.64Zm5.592-22.611V-5.789h2.7a6.073,6.073,0,0,0,5.014-2.144,9.687,9.687,0,0,0,1.771-6.133V-15.5q0-4.138-1.715-6.273a6.052,6.052,0,0,0-5.014-2.134ZM207.607-.924a9.9,9.9,0,0,1-7.223-2.722A9.674,9.674,0,0,1,197.6-10.9v-.522a12.184,12.184,0,0,1,1.174-5.434,8.619,8.619,0,0,1,3.327-3.691,9.339,9.339,0,0,1,4.912-1.3,8.37,8.37,0,0,1,6.515,2.61q2.377,2.61,2.377,7.4v2.2H203.058a5,5,0,0,0,1.575,3.169,4.761,4.761,0,0,0,3.327,1.193,5.815,5.815,0,0,0,4.865-2.256l2.647,2.964a8.087,8.087,0,0,1-3.281,2.675A10.764,10.764,0,0,1,207.607-.924Zm-.615-16.553a3.373,3.373,0,0,0-2.6,1.081,5.586,5.586,0,0,0-1.277,3.094h7.493v-.429a3.982,3.982,0,0,0-.969-2.768A3.482,3.482,0,0,0,206.991-17.477Zm19.274,9.6,3.747-13.589h5.629L228.838-1.3h-5.145l-6.8-20.169h5.629Z" transform="translate(-10.353 28.437)" fill="#fff"/>
        <path id="Path_14859" data-name="Path 14859" d="M9.846-28.437,16.818-8.753l6.934-19.684H31.1V-1.3H25.486V-8.716l.559-12.806L18.719-1.3h-3.84L7.572-21.5,8.131-8.716V-1.3H2.539V-28.437ZM47.314-1.3a5.982,5.982,0,0,1-.541-1.808A6.518,6.518,0,0,1,41.684-.924a7.161,7.161,0,0,1-4.912-1.715,5.515,5.515,0,0,1-1.948-4.325A5.7,5.7,0,0,1,37.2-11.885q2.377-1.715,6.869-1.734h2.479v-1.156a3.324,3.324,0,0,0-.718-2.237,2.823,2.823,0,0,0-2.265-.839,3.21,3.21,0,0,0-2.134.652,2.216,2.216,0,0,0-.774,1.789H35.272a5.411,5.411,0,0,1,1.081-3.243,7.146,7.146,0,0,1,3.057-2.339,11.141,11.141,0,0,1,4.436-.848,8.8,8.8,0,0,1,5.918,1.873,6.554,6.554,0,0,1,2.19,5.266v8.742a9.642,9.642,0,0,0,.8,4.343V-1.3ZM42.858-5.044a4.64,4.64,0,0,0,2.2-.531A3.489,3.489,0,0,0,46.549-7v-3.467H44.536q-4.045,0-4.306,2.8l-.019.317A2.157,2.157,0,0,0,40.92-5.7,2.751,2.751,0,0,0,42.858-5.044ZM67.427-16.414a14.635,14.635,0,0,0-1.939-.149q-3.057,0-4.008,2.069V-1.3H56.093V-21.466h5.089l.149,2.4a4.992,4.992,0,0,1,4.492-2.777A5.645,5.645,0,0,1,67.5-21.6ZM81.146-1.3a5.982,5.982,0,0,1-.541-1.808A6.518,6.518,0,0,1,75.517-.924,7.161,7.161,0,0,1,70.6-2.639a5.515,5.515,0,0,1-1.948-4.325,5.7,5.7,0,0,1,2.377-4.921Q73.41-13.6,77.9-13.618h2.479v-1.156a3.324,3.324,0,0,0-.718-2.237A2.823,2.823,0,0,0,77.4-17.85a3.21,3.21,0,0,0-2.134.652,2.216,2.216,0,0,0-.774,1.789H69.1a5.411,5.411,0,0,1,1.081-3.243,7.147,7.147,0,0,1,3.057-2.339,11.141,11.141,0,0,1,4.436-.848A8.8,8.8,0,0,1,83.6-19.965a6.554,6.554,0,0,1,2.19,5.266v8.742a9.642,9.642,0,0,0,.8,4.343V-1.3ZM76.691-5.044a4.64,4.64,0,0,0,2.2-.531A3.489,3.489,0,0,0,80.382-7v-3.467H78.369q-4.045,0-4.306,2.8l-.019.317A2.157,2.157,0,0,0,74.752-5.7,2.751,2.751,0,0,0,76.691-5.044ZM96.375-26.424v4.958h3.448v3.952H96.375V-7.448a2.4,2.4,0,0,0,.429,1.6,2.153,2.153,0,0,0,1.64.485,8.591,8.591,0,0,0,1.584-.13v4.082a11.09,11.09,0,0,1-3.262.485q-5.667,0-5.779-5.723V-17.514H88.043v-3.952h2.945v-4.958Zm5.052,14.856a11.961,11.961,0,0,1,1.156-5.35,8.46,8.46,0,0,1,3.327-3.635,9.707,9.707,0,0,1,5.042-1.286,9.184,9.184,0,0,1,6.664,2.5,10.025,10.025,0,0,1,2.88,6.785l.037,1.379a10.542,10.542,0,0,1-2.591,7.447A9.006,9.006,0,0,1,110.99-.924a9.051,9.051,0,0,1-6.962-2.8,10.727,10.727,0,0,1-2.6-7.605Zm5.387.391a7.519,7.519,0,0,0,1.081,4.39,3.568,3.568,0,0,0,3.094,1.519,3.577,3.577,0,0,0,3.057-1.5,8.227,8.227,0,0,0,1.1-4.8,7.443,7.443,0,0,0-1.1-4.362,3.577,3.577,0,0,0-3.094-1.547,3.518,3.518,0,0,0-3.057,1.538A8.365,8.365,0,0,0,106.814-11.176Zm22-10.29.168,2.33a7.042,7.042,0,0,1,5.8-2.7,5.852,5.852,0,0,1,4.772,1.883,8.784,8.784,0,0,1,1.6,5.629V-1.3h-5.387V-14.2a3.5,3.5,0,0,0-.746-2.489,3.338,3.338,0,0,0-2.479-.774,3.706,3.706,0,0,0-3.411,1.939V-1.3H123.74V-21.466ZM156.92-1.3a5.983,5.983,0,0,1-.541-1.808A6.518,6.518,0,0,1,151.29-.924a7.161,7.161,0,0,1-4.912-1.715,5.515,5.515,0,0,1-1.948-4.325,5.7,5.7,0,0,1,2.377-4.921q2.377-1.715,6.869-1.734h2.479v-1.156a3.324,3.324,0,0,0-.718-2.237,2.823,2.823,0,0,0-2.265-.839,3.21,3.21,0,0,0-2.134.652,2.216,2.216,0,0,0-.774,1.789h-5.387a5.412,5.412,0,0,1,1.081-3.243,7.147,7.147,0,0,1,3.057-2.339,11.141,11.141,0,0,1,4.436-.848,8.8,8.8,0,0,1,5.918,1.873,6.554,6.554,0,0,1,2.19,5.266v8.742a9.642,9.642,0,0,0,.8,4.343V-1.3Zm-4.455-3.747a4.64,4.64,0,0,0,2.2-.531A3.489,3.489,0,0,0,156.156-7v-3.467h-2.013q-4.045,0-4.306,2.8l-.019.317a2.157,2.157,0,0,0,.708,1.659A2.751,2.751,0,0,0,152.465-5.044Z" transform="translate(-2.539 28.437)" fill="#fd951f"/>
      </g>
    </g>
    <path id="Uma_semana_para_você" data-name="Uma semana para você" d="M-89.255-3.732a8.447,8.447,0,0,1-3.364-1.633,3.12,3.12,0,0,1-1.053-2.391,3.3,3.3,0,0,1,1.287-2.662,5.113,5.113,0,0,1,3.345-1.053,5.581,5.581,0,0,1,2.5.543,4.115,4.115,0,0,1,1.7,1.5,3.828,3.828,0,0,1,.6,2.087h-1.806a2.478,2.478,0,0,0-.786-1.942,3.2,3.2,0,0,0-2.218-.706,3.277,3.277,0,0,0-2.072.585,1.949,1.949,0,0,0-.744,1.623,1.754,1.754,0,0,0,.706,1.408,6.935,6.935,0,0,0,2.4,1.053A11.135,11.135,0,0,1-86.088-4.27a4.032,4.032,0,0,1,1.422,1.343A3.427,3.427,0,0,1-84.2-1.121a3.183,3.183,0,0,1-1.291,2.653,5.505,5.505,0,0,1-3.453,1,6.4,6.4,0,0,1-2.62-.538A4.409,4.409,0,0,1-93.442.516a3.6,3.6,0,0,1-.66-2.124H-92.3A2.346,2.346,0,0,0-91.383.343a3.841,3.841,0,0,0,2.437.716,3.531,3.531,0,0,0,2.18-.58A1.884,1.884,0,0,0-86.008-1.1a1.85,1.85,0,0,0-.7-1.549A8.091,8.091,0,0,0-89.255-3.732Zm11.284,6.26a4.423,4.423,0,0,1-3.35-1.352A5.018,5.018,0,0,1-82.612-2.44v-.318a6.075,6.075,0,0,1,.575-2.69A4.489,4.489,0,0,1-80.427-7.3a4.046,4.046,0,0,1,2.241-.669,3.792,3.792,0,0,1,3.069,1.3,5.631,5.631,0,0,1,1.095,3.724v.72h-6.858A3.6,3.6,0,0,0-80.006.194a2.75,2.75,0,0,0,2.129.922A3.015,3.015,0,0,0-76.324.741,3.9,3.9,0,0,0-75.21-.251l1.057.823A4.251,4.251,0,0,1-77.971,2.528Zm-.215-9.076a2.309,2.309,0,0,0-1.759.763,3.707,3.707,0,0,0-.88,2.138h5.071v-.131a3.3,3.3,0,0,0-.711-2.044A2.174,2.174,0,0,0-78.186-6.548ZM-65.77,1.34a3.677,3.677,0,0,1-2.966,1.188,3.147,3.147,0,0,1-2.465-.94A4.07,4.07,0,0,1-72.057-1.2V-7.783h1.731v6.54q0,2.3,1.871,2.3A2.591,2.591,0,0,0-65.816-.419V-7.783h1.731V2.341h-1.647ZM-50.818-.344a1.274,1.274,0,0,0-.529-1.09A5.089,5.089,0,0,0-53.19-2.1a8.715,8.715,0,0,1-2.087-.674,2.968,2.968,0,0,1-1.142-.936A2.238,2.238,0,0,1-56.787-5a2.626,2.626,0,0,1,1.053-2.105,4.111,4.111,0,0,1,2.69-.861,4.23,4.23,0,0,1,2.793.889A2.823,2.823,0,0,1-49.18-4.808h-1.74a1.563,1.563,0,0,0-.6-1.226,2.261,2.261,0,0,0-1.52-.515,2.367,2.367,0,0,0-1.478.412,1.3,1.3,0,0,0-.533,1.076,1.05,1.05,0,0,0,.5.945,6.1,6.1,0,0,0,1.792.608,9.336,9.336,0,0,1,2.1.692,3.064,3.064,0,0,1,1.193.968,2.381,2.381,0,0,1,.388,1.38,2.591,2.591,0,0,1-1.085,2.175,4.553,4.553,0,0,1-2.816.819A5.1,5.1,0,0,1-55.14,2.1,3.5,3.5,0,0,1-56.6.9a2.9,2.9,0,0,1-.529-1.67H-55.4a1.792,1.792,0,0,0,.7,1.38,2.7,2.7,0,0,0,1.717.51,2.791,2.791,0,0,0,1.577-.4A1.222,1.222,0,0,0-50.818-.344Zm6.334-9.89v2.451h1.89v1.338h-1.89V-.167a1.4,1.4,0,0,0,.253.912,1.064,1.064,0,0,0,.861.3,4.191,4.191,0,0,0,.823-.112v1.4a5.018,5.018,0,0,1-1.329.187,2.156,2.156,0,0,1-1.75-.7,3.015,3.015,0,0,1-.589-1.993V-6.445h-1.843V-7.783h1.843v-2.451ZM-34.322,2.341a3.636,3.636,0,0,1-.243-1.067,3.862,3.862,0,0,1-2.882,1.254A3.574,3.574,0,0,1-39.9,1.681a2.74,2.74,0,0,1-.959-2.147,2.862,2.862,0,0,1,1.2-2.456A5.669,5.669,0,0,1-36.277-3.8h1.684v-.8a1.944,1.944,0,0,0-.543-1.446,2.181,2.181,0,0,0-1.6-.538,2.524,2.524,0,0,0-1.553.468,1.379,1.379,0,0,0-.627,1.132h-1.74a2.389,2.389,0,0,1,.538-1.464,3.672,3.672,0,0,1,1.46-1.118,4.91,4.91,0,0,1,2.026-.412,4,4,0,0,1,2.742.875,3.156,3.156,0,0,1,1.029,2.409v4.66a5.7,5.7,0,0,0,.356,2.218v.15Zm-2.872-1.319A3.042,3.042,0,0,0-35.651.6,2.547,2.547,0,0,0-34.593-.494V-2.571H-35.95q-3.181,0-3.181,1.862A1.576,1.576,0,0,0-38.589.563,2.086,2.086,0,0,0-37.194,1.022ZM-25.255-6.23a5.187,5.187,0,0,0-.851-.065,2.281,2.281,0,0,0-2.311,1.45V2.341h-1.731V-7.783h1.684l.028,1.17A2.7,2.7,0,0,1-26.023-7.97a1.768,1.768,0,0,1,.767.131Zm4.407-4v2.451h1.89v1.338h-1.89V-.167A1.4,1.4,0,0,0-20.6.746a1.064,1.064,0,0,0,.861.3,4.191,4.191,0,0,0,.823-.112v1.4a5.018,5.018,0,0,1-1.329.187,2.156,2.156,0,0,1-1.75-.7,3.015,3.015,0,0,1-.589-1.993V-6.445h-1.843V-7.783h1.843v-2.451ZM-7.992,2.528a4.423,4.423,0,0,1-3.35-1.352A5.018,5.018,0,0,1-12.633-2.44v-.318a6.075,6.075,0,0,1,.575-2.69A4.489,4.489,0,0,1-10.448-7.3,4.046,4.046,0,0,1-8.208-7.97a3.792,3.792,0,0,1,3.069,1.3A5.631,5.631,0,0,1-4.044-2.946v.72H-10.9A3.6,3.6,0,0,0-10.027.194,2.75,2.75,0,0,0-7.9,1.115,3.015,3.015,0,0,0-6.346.741,3.9,3.9,0,0,0-5.232-.251l1.057.823A4.251,4.251,0,0,1-7.992,2.528Zm-.215-9.076a2.309,2.309,0,0,0-1.759.763,3.706,3.706,0,0,0-.88,2.138h5.071v-.131a3.3,3.3,0,0,0-.711-2.044A2.174,2.174,0,0,0-8.208-6.548ZM-.413-7.783-.367-6.66a3.739,3.739,0,0,1,3-1.31A2.894,2.894,0,0,1,5.528-6.342,3.835,3.835,0,0,1,6.843-7.521,3.883,3.883,0,0,1,8.756-7.97q3.331,0,3.387,3.527V2.341H10.412V-4.34a2.325,2.325,0,0,0-.5-1.623A2.184,2.184,0,0,0,8.251-6.5a2.3,2.3,0,0,0-1.6.575,2.334,2.334,0,0,0-.739,1.549V2.341H4.171V-4.293A1.931,1.931,0,0,0,2.01-6.5,2.316,2.316,0,0,0-.32-5.051V2.341H-2.051V-7.783ZM28.05-2.609a6.062,6.062,0,0,1-1.057,3.724,3.389,3.389,0,0,1-2.863,1.413,3.713,3.713,0,0,1-2.9-1.17V6.233H19.5V-7.783h1.581l.084,1.123A3.566,3.566,0,0,1,24.1-7.97a3.452,3.452,0,0,1,2.887,1.375A6.128,6.128,0,0,1,28.05-2.768Zm-1.731-.2a4.473,4.473,0,0,0-.73-2.7,2.351,2.351,0,0,0-2-.992,2.545,2.545,0,0,0-2.358,1.394V-.27a2.549,2.549,0,0,0,2.377,1.385A2.34,2.34,0,0,0,25.584.128,4.883,4.883,0,0,0,26.319-2.805ZM35.142-6.23A5.187,5.187,0,0,0,34.29-6.3a2.281,2.281,0,0,0-2.311,1.45V2.341H30.248V-7.783h1.684l.028,1.17A2.7,2.7,0,0,1,34.375-7.97a1.768,1.768,0,0,1,.767.131Zm.945,3.415a5.98,5.98,0,0,1,.585-2.676A4.363,4.363,0,0,1,38.3-7.324a4.432,4.432,0,0,1,2.381-.646,4.269,4.269,0,0,1,3.345,1.432A5.508,5.508,0,0,1,45.3-2.73v.122A6.032,6.032,0,0,1,44.737.044a4.3,4.3,0,0,1-1.619,1.829,4.483,4.483,0,0,1-2.419.655A4.259,4.259,0,0,1,37.364,1.1a5.48,5.48,0,0,1-1.277-3.789Zm1.74.206A4.331,4.331,0,0,0,38.609.1,2.5,2.5,0,0,0,40.7,1.115,2.485,2.485,0,0,0,42.8.081a4.736,4.736,0,0,0,.777-2.9,4.324,4.324,0,0,0-.791-2.7,2.513,2.513,0,0,0-2.1-1.034,2.486,2.486,0,0,0-2.068,1.02A4.7,4.7,0,0,0,37.827-2.609Zm9.235-.2a5.95,5.95,0,0,1,1.095-3.766,3.5,3.5,0,0,1,2.9-1.4,3.483,3.483,0,0,1,2.891,1.31l.084-1.123h1.581V2.1a4.119,4.119,0,0,1-1.165,3.1,4.3,4.3,0,0,1-3.13,1.132,5.207,5.207,0,0,1-2.143-.468,3.688,3.688,0,0,1-1.6-1.282l.9-1.039A3.385,3.385,0,0,0,51.2,4.914a2.652,2.652,0,0,0,1.97-.711,2.718,2.718,0,0,0,.706-2V1.33a3.558,3.558,0,0,1-2.835,1.2A3.458,3.458,0,0,1,48.162,1.1,6.256,6.256,0,0,1,47.062-2.805Zm1.74.2a4.539,4.539,0,0,0,.7,2.69,2.28,2.28,0,0,0,1.965.978,2.536,2.536,0,0,0,2.4-1.488V-5.051A2.565,2.565,0,0,0,51.488-6.5a2.3,2.3,0,0,0-1.974.982A4.944,4.944,0,0,0,48.8-2.609ZM63.118-6.23a5.187,5.187,0,0,0-.851-.065,2.281,2.281,0,0,0-2.311,1.45V2.341H58.225V-7.783h1.684l.028,1.17A2.7,2.7,0,0,1,62.351-7.97a1.768,1.768,0,0,1,.767.131Zm7.467,8.571a3.637,3.637,0,0,1-.243-1.067A3.862,3.862,0,0,1,67.46,2.528,3.574,3.574,0,0,1,65,1.681a2.74,2.74,0,0,1-.959-2.147,2.862,2.862,0,0,1,1.2-2.456A5.669,5.669,0,0,1,68.629-3.8h1.684v-.8a1.944,1.944,0,0,0-.543-1.446,2.181,2.181,0,0,0-1.6-.538,2.524,2.524,0,0,0-1.553.468,1.379,1.379,0,0,0-.627,1.132H64.25a2.389,2.389,0,0,1,.538-1.464,3.672,3.672,0,0,1,1.46-1.118,4.911,4.911,0,0,1,2.026-.412,4,4,0,0,1,2.741.875,3.156,3.156,0,0,1,1.029,2.409v4.66A5.7,5.7,0,0,0,72.4,2.191v.15ZM67.712,1.022A3.042,3.042,0,0,0,69.256.6,2.547,2.547,0,0,0,70.314-.494V-2.571H68.957q-3.181,0-3.181,1.862A1.576,1.576,0,0,0,66.318.563,2.086,2.086,0,0,0,67.712,1.022Zm8.674-8.8.047,1.123a3.739,3.739,0,0,1,3-1.31,2.894,2.894,0,0,1,2.891,1.628,3.835,3.835,0,0,1,1.315-1.179,3.883,3.883,0,0,1,1.913-.449q3.331,0,3.387,3.527V2.341H87.212V-4.34a2.325,2.325,0,0,0-.5-1.623A2.184,2.184,0,0,0,85.05-6.5a2.3,2.3,0,0,0-1.6.575,2.334,2.334,0,0,0-.739,1.549V2.341h-1.74V-4.293A1.931,1.931,0,0,0,78.809-6.5a2.316,2.316,0,0,0-2.33,1.45V2.341H74.749V-7.783ZM97.8,2.341a3.637,3.637,0,0,1-.243-1.067,3.862,3.862,0,0,1-2.882,1.254,3.574,3.574,0,0,1-2.456-.847,2.74,2.74,0,0,1-.959-2.147,2.862,2.862,0,0,1,1.2-2.456A5.669,5.669,0,0,1,95.848-3.8h1.684v-.8a1.944,1.944,0,0,0-.543-1.446,2.181,2.181,0,0,0-1.6-.538,2.524,2.524,0,0,0-1.553.468,1.379,1.379,0,0,0-.627,1.132h-1.74a2.389,2.389,0,0,1,.538-1.464,3.672,3.672,0,0,1,1.46-1.118,4.91,4.91,0,0,1,2.026-.412,4,4,0,0,1,2.742.875,3.156,3.156,0,0,1,1.029,2.409v4.66a5.7,5.7,0,0,0,.356,2.218v.15ZM94.931,1.022A3.042,3.042,0,0,0,96.475.6,2.547,2.547,0,0,0,97.532-.494V-2.571H96.175q-3.181,0-3.181,1.862A1.576,1.576,0,0,0,93.537.563,2.086,2.086,0,0,0,94.931,1.022Zm11.106.094a2.493,2.493,0,0,0,1.619-.561,1.975,1.975,0,0,0,.767-1.4h1.637a3.139,3.139,0,0,1-.6,1.656,3.944,3.944,0,0,1-1.474,1.254,4.252,4.252,0,0,1-1.951.468,4.171,4.171,0,0,1-3.289-1.38,5.5,5.5,0,0,1-1.221-3.775v-.29a6.1,6.1,0,0,1,.543-2.629,4.133,4.133,0,0,1,1.558-1.787,4.425,4.425,0,0,1,2.4-.636,4.06,4.06,0,0,1,2.83,1.02,3.645,3.645,0,0,1,1.2,2.648h-1.637a2.385,2.385,0,0,0-.744-1.614,2.314,2.314,0,0,0-1.651-.632,2.423,2.423,0,0,0-2.044.95,4.46,4.46,0,0,0-.725,2.746v.327a4.371,4.371,0,0,0,.72,2.695A2.434,2.434,0,0,0,106.037,1.115Zm.281,1.31-.112.487a1.516,1.516,0,0,1,1.432,1.619,1.668,1.668,0,0,1-.749,1.436A3.571,3.571,0,0,1,104.8,6.5l-.065-1a2.245,2.245,0,0,0,1.146-.243.758.758,0,0,0,.407-.683.676.676,0,0,0-.3-.608,3.006,3.006,0,0,0-1.216-.281l.3-1.254Zm11.939-.084a3.636,3.636,0,0,1-.243-1.067,3.862,3.862,0,0,1-2.882,1.254,3.574,3.574,0,0,1-2.456-.847,2.74,2.74,0,0,1-.959-2.147,2.862,2.862,0,0,1,1.2-2.456A5.669,5.669,0,0,1,116.3-3.8h1.684v-.8a1.944,1.944,0,0,0-.543-1.446,2.181,2.181,0,0,0-1.6-.538,2.524,2.524,0,0,0-1.553.468,1.379,1.379,0,0,0-.627,1.132h-1.74a2.389,2.389,0,0,1,.538-1.464,3.672,3.672,0,0,1,1.46-1.118,4.91,4.91,0,0,1,2.026-.412,4,4,0,0,1,2.741.875,3.156,3.156,0,0,1,1.029,2.409v4.66a5.7,5.7,0,0,0,.356,2.218v.15Zm-2.872-1.319A3.042,3.042,0,0,0,116.928.6a2.547,2.547,0,0,0,1.057-1.095V-2.571h-1.357q-3.181,0-3.181,1.862A1.576,1.576,0,0,0,113.99.563,2.086,2.086,0,0,0,115.385,1.022Zm4.07-12.753a2.326,2.326,0,0,1-.575,1.637,1.869,1.869,0,0,1-1.436.627,2.107,2.107,0,0,1-.664-.094,3.584,3.584,0,0,1-.734-.384,3.181,3.181,0,0,0-.655-.351,1.6,1.6,0,0,0-.463-.061.858.858,0,0,0-.655.295,1.069,1.069,0,0,0-.271.753l-1.16-.065a2.442,2.442,0,0,1,.566-1.656,1.816,1.816,0,0,1,1.436-.655,1.744,1.744,0,0,1,.589.094,4.3,4.3,0,0,1,.711.365,4.184,4.184,0,0,0,.688.356,1.58,1.58,0,0,0,.529.084.837.837,0,0,0,.669-.318,1.116,1.116,0,0,0,.267-.739Zm2.517,8.917a5.98,5.98,0,0,1,.585-2.676,4.362,4.362,0,0,1,1.628-1.834,4.432,4.432,0,0,1,2.381-.646,4.269,4.269,0,0,1,3.345,1.432,5.508,5.508,0,0,1,1.277,3.808v.122a6.032,6.032,0,0,1-.566,2.653A4.3,4.3,0,0,1,129,1.873a4.483,4.483,0,0,1-2.419.655A4.259,4.259,0,0,1,123.249,1.1a5.48,5.48,0,0,1-1.277-3.789Zm1.74.206a4.331,4.331,0,0,0,.781,2.7,2.5,2.5,0,0,0,2.091,1.02,2.485,2.485,0,0,0,2.1-1.034,4.736,4.736,0,0,0,.777-2.9,4.324,4.324,0,0,0-.791-2.7,2.513,2.513,0,0,0-2.1-1.034,2.486,2.486,0,0,0-2.068,1.02A4.7,4.7,0,0,0,123.712-2.609Z" transform="translate(-5552.359 -3755.458)" fill="#fff"/>
  </g>
</svg>
